<?xml version="1.0" standalone="no"?>
<!DOCTYPE svg PUBLIC "-//W3C//DTD SVG 20010904//EN"
 "http://www.w3.org/TR/2001/REC-SVG-20010904/DTD/svg10.dtd">
<svg version="1.0" xmlns="http://www.w3.org/2000/svg"
 width="1000.000000pt" height="1000.000000pt" viewBox="0 0 1000.000000 1000.000000"
 preserveAspectRatio="xMidYMid meet">
<metadata>
Created by potrace 1.11, written by Peter Selinger 2001-2013
</metadata>
<g transform="translate(0.000000,1000.000000) scale(0.100000,-0.100000)"
fill="#000000" stroke="none">
<path d="M2219 9996 c-2 -2 -31 -6 -64 -9 -72 -7 -196 -26 -205 -32 -4 -3 -22
-6 -41 -9 -82 -10 -311 -82 -434 -135 -163 -71 -340 -171 -470 -265 -38 -28
-72 -53 -75 -56 -3 -3 -34 -29 -70 -59 -226 -187 -446 -462 -587 -731 -76
-145 -177 -405 -197 -505 -3 -11 -9 -40 -15 -65 -20 -90 -33 -165 -48 -285
-10 -78 -10 -5584 0 -5694 4 -46 9 -87 12 -90 2 -4 6 -25 8 -46 10 -75 48
-233 82 -338 100 -306 254 -582 465 -832 82 -98 292 -295 384 -360 15 -11 47
-34 70 -51 76 -57 278 -173 375 -215 53 -23 110 -47 126 -54 75 -33 282 -95
385 -116 30 -6 116 -19 190 -29 129 -18 254 -19 2930 -17 1537 1 2806 6 2820
9 14 4 47 10 75 13 27 3 92 15 145 26 52 11 104 22 115 24 41 9 270 88 280 96
5 5 15 9 22 9 7 0 64 25 126 54 560 272 996 743 1214 1311 44 116 68 186 78
234 2 9 13 50 24 92 19 73 34 165 49 289 10 79 9 5634 -1 5700 -4 30 -10 71
-13 90 -37 259 -138 553 -272 795 -171 308 -399 570 -688 788 -34 26 -67 47
-72 47 -6 0 -12 4 -14 8 -5 13 -136 92 -243 147 -217 112 -534 214 -745 240
-30 4 -66 10 -80 13 -27 6 -5634 14 -5641 8z"/>
</g>
</svg>
